# xmcd
#
# Track frame offsets:
#	150
#	11342
#	27144
#	41843
#	59008
#	73680
#	90635
#	104084
#	122478
#	131479
#	142902
#
# Disc length: 2121 seconds
#
# Revision: 0
# Processed by: cddbd v1.5.1PL0 Copyright (c) Steve Scherf et al.
# Submitted via: dBpowerAMP V4.0
#
DISCID=9608470b
DTITLE=jon-rae and the river - old songs for the new town
DYEAR=2004
DGENRE=Country
TTITLE0=time and effort
TTITLE1=two hands
TTITLE2=prayer to god
TTITLE3=come back to me
TTITLE4=disorder
TTITLE5=young man meets old death
TTITLE6=happy blues
TTITLE7=oliver's song
TTITLE8=goodbye
TTITLE9=nickel and dime/waste of time
TTITLE10=take care they said over their shoulder
EXTD=
EXTT0=
EXTT1=
EXTT2=
EXTT3=
EXTT4=
EXTT5=
EXTT6=
EXTT7=
EXTT8=
EXTT9=
EXTT10=
PLAYORDER=
